<svg width="29" height="27" viewBox="0 0 29 27" fill="none" xmlns="http://www.w3.org/2000/svg">
<path d="M6.76977 7.56238H0.646973V26.6624H6.76977V7.56238Z" fill="#FEFEFE"/>
<path d="M21.6426 7.56238C18.1412 7.56238 17.1703 8.65191 16.3918 10.0537V7.56238H10.269V26.6624H16.3918V15.8667C16.3918 14.2059 16.3918 12.545 19.4532 12.545C22.5146 12.545 22.5146 14.2059 22.5146 15.8667V26.6624H28.6374V15.8667C28.6374 10.8841 27.7628 7.56238 21.6426 7.56238Z" fill="#FEFEFE"/>
<path d="M3.70837 5.90161C5.39914 5.90161 6.76977 4.6003 6.76977 2.99505C6.76977 1.38981 5.39914 0.088501 3.70837 0.088501C2.01761 0.088501 0.646973 1.38981 0.646973 2.99505C0.646973 4.6003 2.01761 5.90161 3.70837 5.90161Z" fill="#FEFEFE"/>
</svg>
