<svg width="25" height="25" viewBox="0 0 25 25" fill="none" xmlns="http://www.w3.org/2000/svg">
<path d="M12.5 24.6094C19.1797 24.6094 24.6094 19.1797 24.6094 12.5C24.6094 5.82031 19.1797 0.390625 12.5 0.390625C5.82031 0.390625 0.390625 5.82031 0.390625 12.5C0.390625 19.1797 5.82031 24.6094 12.5 24.6094ZM3.125 17.3242L8.04688 17.2852C8.59375 19.2578 9.51172 21.1719 10.7617 22.8906C7.42187 22.3437 4.62891 20.2148 3.125 17.3242ZM9.29687 9.17969H15.4297C15.8789 11.3281 15.8789 13.5352 15.4687 15.6836L9.29687 15.7227C8.84766 13.5547 8.84766 11.3281 9.29687 9.17969ZM12.3633 22.4414C11.1328 20.8594 10.2344 19.1211 9.6875 17.2852L15.0586 17.2461C14.4922 19.082 13.5937 20.8398 12.3633 22.4414ZM13.9258 22.9492C15.2148 21.1914 16.1328 19.2578 16.6797 17.2266L21.9336 17.1875C20.4102 20.2539 17.4414 22.4609 13.9258 22.9492ZM23.0469 12.5C23.0469 13.5937 22.8711 14.6484 22.5781 15.625L17.0508 15.6641C17.4414 13.5156 17.4219 11.3281 17.0117 9.17969H22.5C22.8516 10.2148 23.0469 11.3477 23.0469 12.5ZM21.8359 7.61719H16.6406C16.0742 5.66406 15.1758 3.76953 13.9258 2.05078C17.3828 2.51953 20.293 4.64844 21.8359 7.61719ZM15.0195 7.61719H9.70703C10.2734 5.82031 11.1523 4.12109 12.3633 2.55859C13.5742 4.12109 14.4531 5.82031 15.0195 7.61719ZM10.7617 2.10938C9.53125 3.80859 8.63281 5.66406 8.08594 7.61719H3.16406C4.66797 4.74609 7.44141 2.65625 10.7617 2.10938ZM7.71484 9.17969C7.30469 11.3477 7.30469 13.5547 7.69531 15.7227L2.48047 15.7617C2.12891 14.7266 1.95312 13.6328 1.95312 12.5C1.95312 11.3477 2.14844 10.2148 2.5 9.17969H7.71484Z" fill="#FF7DAD"/>
</svg>
