<svg width="31" height="30" viewBox="0 0 31 30" fill="none" xmlns="http://www.w3.org/2000/svg">
<g clip-path="url(#clip0_801_13)">
<path d="M15.3559 0C7.14541 0 0.486328 6.71625 0.486328 15C0.486328 21.6275 4.74645 27.25 10.6559 29.2337C11.3981 29.3725 11.6385 28.9075 11.6385 28.5125V25.72C7.50228 26.6275 6.64108 23.95 6.64108 23.95C5.96452 22.2162 4.98932 21.755 4.98932 21.755C3.63991 20.8237 5.09217 20.8438 5.09217 20.8438C6.58532 20.9487 7.37093 22.39 7.37093 22.39C8.6968 24.6825 10.8492 24.02 11.698 23.6362C11.8306 22.6675 12.2159 22.005 12.6422 21.6313C9.33991 21.25 5.86787 19.9637 5.86787 14.2175C5.86787 12.5787 6.44902 11.2413 7.39943 10.1912C7.24578 9.8125 6.7365 8.28625 7.54441 6.22125C7.54441 6.22125 8.79345 5.81875 11.6348 7.75875C12.8206 7.42625 14.092 7.26 15.3559 7.25375C16.6198 7.26 17.8924 7.42625 19.0807 7.75875C21.9195 5.81875 23.1661 6.22125 23.1661 6.22125C23.9753 8.2875 23.466 9.81375 23.3123 10.1912C24.2665 11.2413 24.8427 12.58 24.8427 14.2175C24.8427 19.9788 21.3644 21.2475 18.0535 21.6187C18.5863 22.0837 19.0733 22.9963 19.0733 24.3962V28.5125C19.0733 28.9112 19.3112 29.38 20.0658 29.2325C25.9703 27.2463 30.2254 21.625 30.2254 15C30.2254 6.71625 23.5676 0 15.3559 0Z" fill="#FF7DAD"/>
</g>
<defs>
<clipPath id="clip0_801_13">
<rect width="29.7391" height="30" fill="white" transform="translate(0.486328)"/>
</clipPath>
</defs>
</svg>
